<svg width="63" height="58" viewBox="0 0 63 58" fill="none" xmlns="http://www.w3.org/2000/svg">
<path d="M61.9985 14.9677H53.9985V11.2258H54.9985C55.2637 11.2258 55.5181 11.1272 55.7056 10.9518C55.8931 10.7764 55.9985 10.5384 55.9985 10.2903V8.41935H59.9985C60.2637 8.41935 60.5181 8.32079 60.7056 8.14536C60.8931 7.96992 60.9985 7.73198 60.9985 7.48387V0H58.9985V6.54839H55.9985V4.67742C55.9985 4.42931 55.8931 4.19137 55.7056 4.01593C55.5181 3.8405 55.2637 3.74194 54.9985 3.74194H36.9985C36.7333 3.74194 36.4789 3.8405 36.2914 4.01593C36.1039 4.19137 35.9985 4.42931 35.9985 4.67742V10.2903C35.9985 10.5384 36.1039 10.7764 36.2914 10.9518C36.4789 11.1272 36.7333 11.2258 36.9985 11.2258H37.9985V14.9677H1.99854C1.73332 14.9677 1.47897 15.0663 1.29143 15.2417C1.1039 15.4171 0.998535 15.6551 0.998535 15.9032V53.3226C0.998535 53.5707 1.1039 53.8087 1.29143 53.9841C1.47897 54.1595 1.73332 54.2581 1.99854 54.2581H2.99854V57.0645C2.99854 57.3126 3.1039 57.5506 3.29143 57.726C3.47897 57.9014 3.73332 58 3.99854 58H11.9985C12.2637 58 12.5181 57.9014 12.7056 57.726C12.8931 57.5506 12.9985 57.3126 12.9985 57.0645V54.2581H50.9985V57.0645C50.9985 57.3126 51.1039 57.5506 51.2914 57.726C51.4789 57.9014 51.7333 58 51.9985 58H59.9985C60.2637 58 60.5181 57.9014 60.7056 57.726C60.8931 57.5506 60.9985 57.3126 60.9985 57.0645V54.2581H61.9985C62.2637 54.2581 62.5181 54.1595 62.7056 53.9841C62.8931 53.8087 62.9985 53.5707 62.9985 53.3226V15.9032C62.9985 15.6551 62.8931 15.4171 62.7056 15.2417C62.5181 15.0663 62.2637 14.9677 61.9985 14.9677ZM39.9985 11.2258H51.9985V14.9677H39.9985V11.2258ZM60.9985 52.3871H2.99854V50.5161H60.9985V52.3871ZM12.9985 48.6452V20.5806H28.9985V48.6452H12.9985ZM30.9985 48.6452V20.5806H32.9985V48.6452H30.9985ZM34.9985 48.6452V20.5806H56.9985V48.6452H34.9985ZM60.9985 48.6452H58.9985V19.6452C58.9985 19.3971 58.8931 19.1591 58.7056 18.9837C58.5181 18.8083 58.2637 18.7097 57.9985 18.7097H11.9985C11.7333 18.7097 11.4789 18.8083 11.2914 18.9837C11.1039 19.1591 10.9985 19.3971 10.9985 19.6452V25.2581H5.99854C5.73331 25.2581 5.47897 25.3567 5.29143 25.5321C5.1039 25.7075 4.99854 25.9455 4.99854 26.1935V29.9355C4.99854 30.1836 5.1039 30.4216 5.29143 30.597C5.47897 30.7724 5.73331 30.871 5.99854 30.871H10.9985V37.4194H5.99854C5.73331 37.4194 5.47897 37.518 5.29143 37.6934C5.1039 37.8688 4.99854 38.1067 4.99854 38.3548V42.0968C4.99854 42.3449 5.1039 42.5829 5.29143 42.7583C5.47897 42.9337 5.73331 43.0323 5.99854 43.0323H10.9985V48.6452H2.99854V16.8387H60.9985V48.6452Z" fill="#1B88EC"/>
<path d="M42.9985 36.4933L48.9985 29.9449L45.9985 29.0095L50.9985 23.3872H44.9985L40.9985 29.9449L43.9985 30.8804L42.9985 36.4933Z" fill="#1B88EC"/>
<path d="M54.9987 41.1614H36.9987V43.0323H54.9987V41.1614Z" fill="#1B88EC"/>
<path d="M54.9987 44.9033H36.9987V46.7743H54.9987V44.9033Z" fill="#1B88EC"/>
<path d="M25.9985 23.3872H15.9985V29.0001H25.9985V23.3872Z" fill="#1B88EC"/>
<path d="M26.9984 41.1614H14.9984V43.0323H26.9984V41.1614Z" fill="#1B88EC"/>
<path d="M26.9984 37.4194H14.9984V39.2904H26.9984V37.4194Z" fill="#1B88EC"/>
<path d="M18.9984 44.9033H14.9984V46.7743H18.9984V44.9033Z" fill="#1B88EC"/>
<path d="M26.9984 44.9033H22.9984V46.7743H26.9984V44.9033Z" fill="#1B88EC"/>
</svg>
