<svg width="59" height="45" viewBox="0 0 59 45" fill="none" xmlns="http://www.w3.org/2000/svg">
<path d="M8.99998 17.6897L1 15.4138" stroke="#1B88EC" stroke-width="2" stroke-miterlimit="10" stroke-linecap="round"/>
<path d="M8.99998 26.7929L1 24.5171" stroke="#1B88EC" stroke-width="2" stroke-miterlimit="10" stroke-linecap="round"/>
<path d="M19.5 19.4654V9.84473H48.4999V19.4654H19.5Z" stroke="#1B88EC"/>
<path d="M9.5 44.4999V9.84473H18.5V44.4999H9.5Z" stroke="#1B88EC"/>
<path d="M19.5 44.4998V37.155H48.4999V44.4998H19.5Z" stroke="#1B88EC"/>
<path d="M19.5 36.1551V28.8103H48.4999V36.1551H19.5Z" stroke="#1B88EC"/>
<path d="M19.5 27.8104V20.4656H48.4999V27.8104H19.5Z" stroke="#1B88EC"/>
<path d="M24.0002 3.27586V1" stroke="#1B88EC" stroke-width="2" stroke-miterlimit="10" stroke-linecap="round"/>
<path d="M35 3.27586V1" stroke="#1B88EC" stroke-width="2" stroke-miterlimit="10" stroke-linecap="round"/>
<path d="M49.5 44.4999V18.9482H58.5V44.4999H49.5Z" stroke="#1B88EC"/>
<path d="M49.5 14.1551V12.1206H58.5V14.1551H49.5Z" stroke="#1B88EC"/>
<path d="M38 31.3446H30C29.447 31.3446 29 31.0055 29 30.586C29 30.1665 29.447 29.8274 30 29.8274H38C38.553 29.8274 39 30.1665 39 30.586C39 31.0055 38.553 31.3446 38 31.3446Z" fill="#1B88EC"/>
<path d="M38 39.6896H30C29.447 39.6896 29 39.3505 29 38.931C29 38.5115 29.447 38.1724 30 38.1724H38C38.553 38.1724 39 38.5115 39 38.931C39 39.3505 38.553 39.6896 38 39.6896Z" fill="#1B88EC"/>
<path d="M24.0002 1H35.0002" stroke="#1B88EC" stroke-width="2" stroke-miterlimit="10" stroke-linecap="round"/>
<path d="M21.5 15.6723V12.1206H29.5V15.6723H21.5Z" stroke="#1B88EC"/>
<path d="M35 13.1378H34C33.447 13.1378 33 12.7987 33 12.3792C33 11.9597 33.447 11.6206 34 11.6206H35C35.553 11.6206 36 11.9597 36 12.3792C36 12.7987 35.553 13.1378 35 13.1378Z" fill="#1B88EC"/>
<path d="M35 16.1725H34C33.447 16.1725 33 15.8334 33 15.4139C33 14.9944 33.447 14.6553 34 14.6553H35C35.553 14.6553 36 14.9944 36 15.4139C36 15.8334 35.553 16.1725 35 16.1725Z" fill="#1B88EC"/>
<path d="M39 13.1378H38C37.447 13.1378 37 12.7987 37 12.3792C37 11.9597 37.447 11.6206 38 11.6206H39C39.553 11.6206 40 11.9597 40 12.3792C40 12.7987 39.553 13.1378 39 13.1378Z" fill="#1B88EC"/>
<path d="M39 16.1725H38C37.447 16.1725 37 15.8334 37 15.4139C37 14.9944 37.447 14.6553 38 14.6553H39C39.553 14.6553 40 14.9944 40 15.4139C40 15.8334 39.553 16.1725 39 16.1725Z" fill="#1B88EC"/>
<path d="M43 13.1378H42C41.447 13.1378 41 12.7987 41 12.3792C41 11.9597 41.447 11.6206 42 11.6206H43C43.553 11.6206 44 11.9597 44 12.3792C44 12.7987 43.553 13.1378 43 13.1378Z" fill="#1B88EC"/>
<path d="M43 16.1725H42C41.447 16.1725 41 15.8334 41 15.4139C41 14.9944 41.447 14.6553 42 14.6553H43C43.553 14.6553 44 14.9944 44 15.4139C44 15.8334 43.553 16.1725 43 16.1725Z" fill="#1B88EC"/>
<path d="M36.6781 23.0001H31.3221C30.5921 23.0001 30.0001 22.551 30.0001 21.9972V19.9656H38.0001V21.9972C38.0001 22.551 37.4081 23.0001 36.6781 23.0001Z" fill="#1B88EC"/>
<path d="M19.5 5.05174V3.77588H48.4999V5.05174H19.5Z" stroke="#1B88EC"/>
<path d="M19.5 8.84495V7.56909H48.4999V8.84495H19.5Z" stroke="#1B88EC"/>
<path d="M19.5 6.31038V6.05176H48.4999V6.31038V6.569H19.5V6.31038Z" stroke="#1B88EC"/>
</svg>
